# Blender 4.2.3 LTS
# www.blender.org
mtllib bubble.mtl
o Sphere
v -0.225891 -0.618062 -0.771975
v -0.202274 0.903317 -0.423872
v 0.196115 0.199514 -0.980482
v 0.172654 0.703182 -0.717184
v 0.385242 0.487290 -0.794419
v 0.224762 -0.369702 -0.927231
v 0.558883 -0.149714 -0.831077
v 0.248711 -0.757496 -0.632487
v 0.496393 0.788463 -0.391557
v 0.652487 0.409493 -0.668421
v 0.624289 -0.487417 -0.628039
v 0.095284 1.003959 0.083724
v 0.844562 0.108868 -0.547531
v 0.295050 -0.949704 -0.232168
v 0.189834 0.975984 -0.203282
v 0.850226 0.475433 -0.260919
v 0.943949 -0.191811 -0.335434
v 0.759822 -0.641350 -0.220106
v 0.674180 0.763681 0.002109
v 0.881804 0.467887 0.181001
v 1.007736 0.127230 0.139839
v 0.956628 -0.295861 0.173572
v 0.455747 -0.901325 0.002548
v 0.756879 0.292918 0.599509
v 0.411633 0.895946 0.221526
v 0.599604 0.638968 0.497466
v 0.765762 -0.098975 0.650062
v 0.731202 -0.588612 0.413439
v 0.371926 0.100138 0.941452
v 0.345413 0.479008 0.825073
v 0.384926 -0.410268 0.852270
v 0.374918 -0.805327 0.506653
v 0.158944 -0.965865 0.244808
v -0.000045 -0.031517 1.019163
v 0.183961 0.870112 0.503188
v -0.183979 0.307755 0.949415
v -0.183979 -0.307755 0.949415
v -0.236097 -0.607486 0.787473
v -0.268285 0.597697 0.788147
v -0.601983 0.077002 0.812629
v -0.264792 -0.864433 0.477592
v -0.198494 0.897346 0.428204
v -0.667528 -0.279475 0.712111
v -0.697849 0.550484 0.500474
v -0.893623 0.098976 0.458703
v -0.554854 0.805655 0.256621
v -0.898113 -0.388605 0.275974
v -0.721828 -0.600535 0.397319
v -0.884792 0.475433 0.090034
v -1.005684 0.130347 0.017193
v -0.956011 -0.313439 -0.047493
v -0.936275 -0.001141 -0.408912
v -0.444899 -0.915720 -0.028884
v -0.627993 0.767755 -0.228925
v -0.827658 0.479008 -0.339171
v -0.746182 -0.661925 -0.189317
v -0.278834 0.970951 -0.019202
v -0.566425 0.475433 -0.685657
v -0.624227 0.098976 -0.786963
v -0.728936 -0.371083 -0.618511
v -0.297418 0.588597 -0.778600
v -0.209111 0.071271 -0.990741
v -0.288332 -0.300258 -0.919952
v -0.268267 -0.864451 -0.474137
v -0.130902 -1.002543 -0.021483
vn -0.2313 -0.6090 -0.7587
vn -0.2028 0.8808 -0.4278
vn 0.1911 0.1952 -0.9620
vn 0.1592 0.6937 -0.7024
vn 0.3823 0.4742 -0.7931
vn 0.2029 -0.3548 -0.9127
vn 0.5682 -0.1180 -0.8144
vn 0.2508 -0.7490 -0.6133
vn 0.4932 0.7755 -0.3942
vn 0.6352 0.3979 -0.6619
vn 0.6250 -0.4889 -0.6086
vn 0.0791 0.9927 0.0906
vn 0.8446 0.0959 -0.5268
vn 0.2780 -0.9259 -0.2557
vn 0.1948 0.9551 -0.2233
vn 0.8553 0.4457 -0.2642
vn 0.9280 -0.1776 -0.3276
vn 0.7430 -0.6360 -0.2086
vn 0.6557 0.7551 -0.0019
vn 0.8630 0.4685 0.1890
vn 0.9854 0.1150 0.1257
vn 0.9388 -0.2987 0.1717
vn 0.4885 -0.8718 0.0360
vn 0.7503 0.2788 0.5994
vn 0.4234 0.8820 0.2069
vn 0.5960 0.6327 0.4944
vn 0.7605 -0.1061 0.6406
vn 0.7205 -0.5698 0.3952
vn 0.3805 0.0982 0.9195
vn 0.3203 0.4791 0.8173
vn 0.3676 -0.4127 0.8334
vn 0.3390 -0.7850 0.5185
vn 0.1394 -0.9586 0.2483
vn -0.0053 -0.0198 0.9998
vn 0.1778 0.8330 0.5239
vn -0.1751 0.2891 0.9412
vn -0.1886 -0.2922 0.9376
vn -0.2106 -0.6065 0.7667
vn -0.2619 0.5918 0.7623
vn -0.5776 0.0961 0.8106
vn -0.2521 -0.8493 0.4638
vn -0.2137 0.8792 0.4258
vn -0.6518 -0.2834 0.7035
vn -0.6900 0.5209 0.5026
vn -0.8884 0.0946 0.4491
vn -0.5523 0.7947 0.2517
vn -0.8973 -0.3530 0.2650
vn -0.6814 -0.6211 0.3872
vn -0.8711 0.4806 0.1014
vn -0.9907 0.1299 0.0406
vn -0.9490 -0.3073 -0.0702
vn -0.9129 0.0069 -0.4081
vn -0.4616 -0.8870 -0.0115
vn -0.6098 0.7583 -0.2304
vn -0.8210 0.4492 -0.3524
vn -0.7343 -0.6493 -0.1980
vn -0.2785 0.9603 -0.0163
vn -0.5812 0.4602 -0.6712
vn -0.6174 0.1022 -0.7800
vn -0.6972 -0.3755 -0.6107
vn -0.2815 0.5669 -0.7742
vn -0.2232 0.0717 -0.9721
vn -0.2979 -0.2881 -0.9101
vn -0.2725 -0.8430 -0.4638
vn -0.1073 -0.9939 -0.0237
vt 0.828169 0.181513
vt 0.618172 0.118268
vt 0.803482 0.029735
vt 0.713630 0.743016
vt 0.678319 0.660608
vt 0.721204 0.561533
vt 0.655388 0.455750
vt 0.713766 0.377197
vt 0.659331 0.901110
vt 0.609744 0.781531
vt 0.623657 0.627093
vt 0.591272 0.533801
vt 0.626504 0.341903
vt 0.552878 0.438619
vt 0.546046 0.282548
vt 0.689098 0.234520
vt 0.546915 0.655822
vt 0.498423 0.766907
vt 0.501208 0.149493
vt 0.478467 0.533799
vt 0.334562 0.950679
vt 0.427294 0.845601
vt 0.469690 0.406338
vt 0.421948 0.312847
vt 0.337208 0.091485
vt 0.453125 0.000000
vt 0.351362 0.216171
vt 0.390588 0.718339
vt 0.392101 0.593583
vt 0.389282 0.469165
vt 0.303843 0.823516
vt 0.312582 0.656006
vt 0.311555 0.530981
vt 0.320215 0.368721
vt 0.249389 0.485887
vt 0.221054 0.404735
vt 0.208642 0.306289
vt 0.171741 0.183197
vt 0.170820 0.841342
vt 0.079157 0.048815
vt 0.221054 0.595265
vt 0.147516 0.523151
vt 0.196230 0.698705
vt 0.131538 0.415904
vt 0.084466 0.292801
vt 0.097495 0.674738
vt 0.076782 0.530835
vt 0.046955 0.375390
vt 0.022611 0.150359
vt 0.066931 0.793298
vt 0.015664 0.655822
vt 0.031154 0.911618
vt 0.000000 0.784407
vt 0.000000 0.399333
vt 0.000000 0.273040
vt 0.010664 0.538824
vt 0.993268 0.527207
vt 0.935049 0.500692
vt 0.992171 0.399333
vt 1.000000 0.655822
vt 0.945557 0.768646
vt 0.937739 0.656003
vt 0.886871 0.383980
vt 0.945396 0.911618
vt 0.820029 0.844678
vt 0.949425 0.148089
vt 0.959766 0.278455
vt 0.859414 0.655822
vt 0.804501 0.694669
vt 0.828125 1.000000
vt 0.785227 0.524248
vt 0.797630 0.405349
vt 0.794392 0.293676
vt 0.464857 0.646732
vt 0.858032 0.530836
s 1
usemtl Bubble
f 64/1/64 14/2/14 65/3/65
f 4/4/4 5/5/5 3/6/3
f 3/6/3 7/7/7 6/8/6
f 15/9/15 9/10/9 4/4/4
f 5/5/5 10/11/10 3/6/3
f 7/7/7 10/11/10 13/12/13
f 7/7/7 11/13/11 6/8/6
f 13/12/13 17/14/17 7/7/7
f 11/13/11 18/15/18 8/16/8
f 10/11/10 9/10/9 16/17/16
f 15/9/15 19/18/19 9/10/9
f 14/2/14 18/15/18 23/19/23
f 13/12/13 16/17/16 21/20/21
f 15/9/15 12/21/12 25/22/25
f 18/15/18 22/23/22 28/24/28
f 14/2/14 23/19/23 33/25/33
f 65/26/65 14/2/14 33/25/33
f 23/19/23 28/24/28 32/27/32
f 25/22/25 26/28/26 19/18/19
f 32/27/32 33/25/33 23/19/23
f 21/20/21 24/29/24 27/30/27
f 21/20/21 27/30/27 22/23/22
f 12/21/12 35/31/35 25/22/25
f 25/22/25 35/31/35 26/28/26
f 26/28/26 35/31/35 30/32/30
f 26/28/26 30/32/30 24/29/24
f 24/29/24 30/32/30 29/33/29
f 27/30/27 31/34/31 28/24/28
f 29/33/29 34/35/34 31/34/31
f 34/35/34 37/36/37 31/34/31
f 31/34/31 37/36/37 38/37/38
f 31/34/31 38/37/38 32/27/32
f 32/27/32 38/37/38 41/38/41
f 32/27/32 41/38/41 33/25/33
f 35/31/35 12/21/12 42/39/42
f 41/38/41 65/40/65 33/25/33
f 34/35/34 36/41/36 40/42/40
f 36/41/36 39/43/39 40/42/40
f 40/42/40 43/44/43 37/36/37
f 37/36/37 43/44/43 38/37/38
f 38/37/38 43/44/43 48/45/48
f 40/42/40 44/46/44 45/47/45
f 43/44/43 47/48/47 48/45/48
f 41/38/41 48/45/48 53/49/53
f 45/47/45 47/48/47 43/44/43
f 44/46/44 46/50/46 49/51/49
f 46/50/46 57/52/57 54/53/54
f 47/48/47 51/54/51 56/55/56
f 47/48/47 56/55/56 48/45/48
f 50/56/50 51/54/51 47/48/47
f 50/57/50 52/58/52 51/59/51
f 49/60/49 54/61/54 55/62/55
f 50/57/50 55/62/55 52/58/52
f 52/58/52 60/63/60 51/59/51
f 57/64/57 2/65/2 54/61/54
f 53/66/53 56/67/56 64/1/64
f 60/63/60 64/1/64 56/67/56
f 55/62/55 54/61/54 58/68/58
f 10/11/10 5/5/5 4/4/4 9/10/9
f 2/65/2 61/69/61 54/61/54
f 57/64/57 12/70/12 15/9/15
f 61/69/61 4/4/4 3/6/3
f 62/71/62 6/8/6 63/72/63
f 61/69/61 2/65/2 4/4/4
f 64/1/64 8/16/8 14/2/14
f 62/71/62 3/6/3 6/8/6
f 1/73/1 6/8/6 8/16/8
f 2/65/2 15/9/15 4/4/4
f 3/6/3 10/11/10 7/7/7
f 8/16/8 6/8/6 11/13/11
f 36/41/36 34/35/34 29/33/29 30/32/30
f 7/7/7 17/14/17 11/13/11
f 8/16/8 18/15/18 14/2/14
f 13/12/13 10/11/10 16/17/16
f 18/15/18 11/13/11 17/14/17
f 16/17/16 9/10/9 19/18/19
f 17/14/17 13/12/13 21/20/21
f 16/17/16 19/18/19 20/74/20
f 21/20/21 16/17/16 20/74/20
f 17/14/17 21/20/21 22/23/22
f 15/9/15 25/22/25 19/18/19
f 18/15/18 17/14/17 22/23/22
f 23/19/23 18/15/18 28/24/28
f 20/74/20 19/18/19 26/28/26
f 20/74/20 26/28/26 24/29/24
f 21/20/21 20/74/20 24/29/24
f 22/23/22 27/30/27 28/24/28
f 28/24/28 31/34/31 32/27/32
f 27/30/27 24/29/24 29/33/29
f 27/30/27 29/33/29 31/34/31
f 35/31/35 42/39/42 39/43/39
f 30/32/30 35/31/35 39/43/39
f 30/32/30 39/43/39 36/41/36
f 44/46/44 39/43/39 42/39/42 46/50/46
f 34/35/34 40/42/40 37/36/37
f 12/21/12 57/52/57 42/39/42
f 49/51/49 50/56/50 45/47/45 44/46/44
f 38/37/38 48/45/48 41/38/41
f 40/42/40 39/43/39 44/46/44
f 41/38/41 53/49/53 65/40/65
f 40/42/40 45/47/45 43/44/43
f 42/39/42 57/52/57 46/50/46
f 58/68/58 59/75/59 52/58/52 55/62/55
f 45/47/45 50/56/50 47/48/47
f 49/51/49 46/50/46 54/53/54
f 53/49/53 48/45/48 56/55/56
f 50/57/50 49/60/49 55/62/55
f 56/67/56 51/59/51 60/63/60
f 61/69/61 62/71/62 59/75/59 58/68/58
f 52/58/52 59/75/59 60/63/60
f 60/63/60 1/73/1 64/1/64
f 58/68/58 54/61/54 61/69/61
f 53/66/53 64/1/64 65/3/65
f 63/72/63 60/63/60 59/75/59 62/71/62
f 2/65/2 57/64/57 15/9/15
f 1/73/1 60/63/60 63/72/63
f 64/1/64 1/73/1 8/16/8
f 62/71/62 61/69/61 3/6/3
f 63/72/63 6/8/6 1/73/1
