# Blender 4.2.3 LTS
# www.blender.org
mtllib rock1.mtl
o low_poly_rock_6
v 0.020248 1.060632 0.031785
v 0.796542 0.181230 0.389939
v 0.721996 0.594565 0.169540
v 0.050470 0.891516 -0.225597
v 0.436211 0.552468 0.429004
v -0.839595 0.358655 -0.010030
v 0.666150 0.842670 -0.153764
v 0.967027 0.173525 -0.540046
v -0.207797 0.836498 -0.038271
v -0.093532 0.822605 0.341507
v 0.011894 0.563014 0.509887
v 0.437546 0.979783 0.020483
v 0.383041 0.856356 -0.273374
v 0.058586 0.033354 -0.245646
v 0.311018 0.191361 0.426808
v -0.587160 0.154216 0.270041
v 0.581698 -0.024193 -0.539130
v 0.087614 0.055835 -0.516693
v 0.912730 0.331943 0.279413
v -0.122331 0.270561 0.612641
v 0.636449 0.797288 0.132966
v 0.679269 0.682869 -0.328392
v 0.811743 0.697133 -0.152988
v 0.858340 0.433330 -0.539060
v 0.492212 0.561473 -0.440914
v 0.198370 0.499208 -0.358930
v -0.436467 0.726408 0.139312
v -0.289019 0.588570 0.391323
v 0.279850 0.770207 0.210264
v -0.193412 0.119455 -0.241717
v -0.425194 0.005056 -0.021595
v -0.699203 0.127236 -0.244319
v 0.028941 -0.054504 0.113848
v -0.032523 0.044753 0.464706
v 0.972169 0.355041 0.040997
v 0.946574 0.485192 -0.177549
v -0.160617 0.547015 -0.391160
v -0.767136 0.104824 0.008045
v -0.832760 0.248785 0.168387
v -0.316494 0.239460 -0.385822
v -0.690305 0.488253 -0.250614
v -0.349031 0.660211 -0.122508
v -0.524138 0.328379 0.486033
v 0.777929 0.047812 0.048014
v 0.642095 -0.020220 0.192044
v 0.982623 0.114569 -0.135042
v 0.459996 -0.008331 -0.235877
v -0.287223 0.039352 0.325407
v 0.256582 -0.052583 0.090266
v 0.496973 0.266281 -0.627204
v 0.083945 0.267906 -0.554857
v -0.765427 0.526303 0.182098
vn 0.6500 0.5399 -0.5348
vn 0.9026 0.3687 -0.2220
vn 0.3869 0.6600 -0.6440
vn 0.8168 0.5085 -0.2723
vn 0.1846 0.8934 -0.4095
vn 0.0577 0.6839 -0.7273
vn 0.0865 0.8724 -0.4812
vn 0.3752 0.7536 -0.5396
vn 0.6709 0.4929 0.5540
vn 0.7694 0.5703 0.2878
vn 0.7157 0.5742 0.3976
vn 0.9583 0.2412 -0.1533
vn -0.1243 0.5265 -0.8411
vn -0.0115 0.5871 -0.8095
vn 0.0096 0.8362 -0.5483
vn -0.3350 0.0739 -0.9393
vn -0.3151 0.0419 -0.9481
vn -0.3373 0.1549 -0.9286
vn -0.5155 0.8035 -0.2978
vn -0.4039 0.7841 -0.4712
vn -0.4931 0.8148 -0.3050
vn -0.5698 0.6861 -0.4524
vn -0.5451 0.6992 -0.4625
vn -0.3892 -0.6381 0.6643
vn -0.4862 -0.6994 0.5239
vn -0.4102 -0.7593 0.5051
vn -0.4424 0.6689 0.5974
vn -0.3142 0.6620 0.6805
vn -0.3029 0.5881 0.7500
vn -0.7275 0.1434 0.6709
vn -0.3838 0.5423 0.7474
vn -0.4464 0.6410 0.6244
vn 0.1188 0.7449 0.6566
vn 0.2289 0.6229 0.7480
vn 0.2543 0.6741 0.6935
vn 0.1853 0.6273 0.7565
vn 0.1073 0.6738 0.7311
vn 0.5682 0.4376 0.6969
vn 0.3848 0.4874 0.7839
vn 0.3982 -0.9137 0.0811
vn 0.1574 -0.9420 -0.2965
vn 0.0305 -0.9843 -0.1739
vn 0.3611 -0.9323 0.0207
vn 0.1356 -0.9907 0.0089
vn 0.4514 -0.8804 -0.1455
vn 0.0489 -0.9985 -0.0258
vn -0.2310 -0.9540 -0.1910
vn -0.2612 -0.9613 -0.0873
vn -0.1568 -0.8436 -0.5135
vn -0.1581 -0.8743 -0.4589
vn -0.1519 -0.9196 -0.3623
vn -0.1639 -0.9793 -0.1187
vn -0.3459 -0.9163 0.2019
vn -0.0769 -0.9503 -0.3016
vn -0.2922 -0.8573 0.4239
vn -0.0512 -0.9681 0.2455
vn 0.1789 -0.7931 0.5822
vn -0.3336 -0.6309 0.7005
vn 0.0908 -0.8669 0.4901
vn -0.0177 -0.7550 0.6555
vn 0.1815 -0.7384 0.6495
vn 0.7601 0.5839 0.2851
vn 0.8364 0.5084 0.2048
vn -0.0052 0.6478 -0.7618
vn -0.0816 0.4914 -0.8671
vn -0.1484 0.5713 -0.8072
vn 0.0107 -0.2014 -0.9794
vn 0.1981 0.0866 -0.9763
vn 0.1718 -0.0537 -0.9837
vn -0.2822 -0.1341 -0.9499
vn -0.2278 -0.2266 -0.9470
vn -0.9023 -0.1319 -0.4104
vn -0.9271 -0.1719 -0.3331
vn -0.8525 0.0119 -0.5226
vn -0.3448 -0.0079 -0.9387
vn -0.6369 0.7504 -0.1766
vn 0.3204 0.0464 0.9461
vn 0.4106 0.1287 0.9027
vn 0.1952 -0.0066 0.9807
vn 0.1341 -0.0525 0.9896
vn 0.0750 -0.0321 0.9967
vn -0.2473 0.4628 0.8513
vn -0.2983 0.4334 0.8504
vn 0.1797 0.4879 0.8542
vn 0.6606 0.7279 0.1836
vn 0.6054 0.7740 0.1852
vn 0.9983 -0.0088 0.0584
vn 0.1405 0.4664 -0.8733
vn -0.0020 0.3211 -0.9470
vn -0.5335 0.6462 -0.5457
vn -0.4062 0.7190 -0.5640
vn -0.4676 0.7755 0.4242
vn 0.1631 0.7524 0.6382
vn 0.2928 0.6298 0.7195
vn 0.5851 -0.7657 0.2669
vn 0.6331 -0.7322 0.2512
vn 0.0381 -0.7150 0.6981
vn 0.2833 -0.4442 0.8500
vn 0.8483 -0.3965 0.3510
vn 0.8854 -0.3333 0.3241
vn 0.9933 -0.0371 0.1097
vn 0.7332 0.6347 0.2443
vn 0.0135 -0.2595 -0.9657
vn -0.9331 -0.2822 -0.2231
vn -0.9588 0.2240 0.1747
vn -0.9500 -0.2809 -0.1366
vn -0.7995 0.5702 -0.1889
vn -0.3172 -0.6047 0.7305
s 1
usemtl rock_gray
f 23//1 36//2 22//3
f 22//3 36//2 24//4
f 12//5 13//6 1//7
f 23//1 22//3 7//8
f 3//9 23//10 21//11
f 24//4 36//2 8//12
f 25//13 22//3 24//14
f 13//6 4//15 1//7
f 40//16 41//17 37//18
f 27//19 42//20 41//21
f 9//22 27//19 1//23
f 43//24 39//25 16//26
f 27//27 52//28 43//29
f 43//30 52//30 39//30
f 43//29 28//31 27//27
f 28//31 10//32 27//27
f 5//33 29//34 11//35
f 12//36 29//34 21//37
f 29//34 5//33 21//37
f 3//9 5//38 2//39
f 21//11 5//38 3//9
f 44//40 45//41 49//42
f 46//43 17//44 8//45
f 47//46 17//44 46//43
f 47//46 14//47 18//48
f 40//49 30//50 32//51
f 30//50 31//52 32//51
f 32//51 31//52 38//53
f 33//54 14//47 49//42
f 31//52 30//50 33//54
f 33//54 30//50 14//47
f 16//26 31//52 48//55
f 48//55 31//52 33//56
f 33//56 34//57 48//55
f 48//55 34//58 43//24
f 49//59 45//60 15//61
f 34//57 49//59 15//61
f 3//9 35//62 23//10
f 35//62 36//63 23//10
f 51//64 26//65 50//66
f 50//67 24//68 8//69
f 50//66 25//13 24//14
f 51//70 18//71 40//16
f 25//13 50//66 26//65
f 32//72 6//73 41//74
f 32//75 41//17 40//16
f 39//25 38//53 16//26
f 41//21 52//76 27//19
f 11//77 20//78 15//79
f 5//80 15//79 2//81
f 28//31 20//82 11//83
f 2//39 19//84 3//9
f 12//5 7//8 13//6
f 21//11 7//85 12//86
f 21//11 23//10 7//85
f 8//12 36//2 46//87
f 7//8 22//3 13//6
f 25//13 13//6 22//3
f 26//65 37//88 4//89
f 13//6 26//65 4//89
f 25//13 26//65 13//6
f 51//64 37//88 26//65
f 9//22 4//90 37//91
f 37//91 42//20 9//22
f 4//90 9//22 1//23
f 41//21 42//20 37//91
f 1//92 27//27 10//32
f 42//20 27//19 9//22
f 1//93 10//94 12//36
f 20//82 28//31 43//29
f 11//83 10//32 28//31
f 12//36 10//94 29//34
f 11//35 29//34 10//94
f 15//79 5//80 11//77
f 2//95 45//96 44//40
f 2//95 44//40 46//43
f 47//46 44//40 49//42
f 46//43 44//40 47//46
f 17//44 47//46 18//48
f 49//42 14//47 47//46
f 18//48 14//47 40//49
f 40//49 14//47 30//50
f 38//53 31//52 16//26
f 33//56 49//59 34//57
f 16//26 48//55 43//24
f 2//97 15//61 45//60
f 15//61 20//98 34//57
f 2//99 46//87 19//100
f 46//87 35//101 19//100
f 19//102 35//62 3//9
f 46//87 36//2 35//101
f 17//103 50//67 8//69
f 37//18 51//70 40//16
f 32//72 38//104 6//73
f 39//105 52//105 6//105
f 38//104 39//106 6//73
f 41//21 6//107 52//76
f 43//24 34//58 20//108
f 50//67 17//103 18//71 51//70
