# Blender 4.2.3 LTS
# www.blender.org
mtllib rock3.mtl
o low_poly_rock_3
v -0.685005 0.422746 0.899397
v -0.142921 1.044375 -0.919800
v 0.013081 1.512371 0.420302
v 0.457134 1.380062 -0.199680
v 0.984251 0.453081 -0.980785
v 0.184080 1.184905 0.491042
v -0.036205 0.040485 0.405946
v -0.302931 -0.109074 -0.424330
v 0.746324 0.087232 -0.987766
v -0.147596 -0.020470 -1.061751
v 0.070334 0.912664 0.856179
v -0.284318 0.390507 -0.901340
v 0.562908 0.035407 -0.683543
v 0.634049 1.372996 0.109320
v 0.379013 1.456357 0.254949
v 0.768192 1.010540 0.527731
v 0.777037 0.907127 0.069971
v 0.017325 1.681617 -0.274671
v -0.226673 1.420674 -0.372221
v -0.589704 1.395190 -0.134302
v -0.614991 0.572711 -0.572232
v -0.498603 1.405781 0.171207
v -0.603835 0.868353 0.594060
v -0.162598 1.295056 0.541650
v 0.952272 0.331323 -0.500507
v 0.572499 -0.055749 -0.416294
v 0.150699 -0.040664 -0.722180
v -0.837960 0.058206 0.135251
v -0.095490 -0.069902 -0.071116
v 1.059387 0.286599 -0.076672
v 0.365212 0.367565 -1.013304
v 0.654821 0.849943 -0.853654
v -0.471388 0.909239 -0.667399
v -0.950871 0.511580 0.019789
v 0.575520 1.256559 -0.459900
v 0.257869 1.358263 -0.712990
v -0.787641 1.025948 -0.325190
v -0.016217 1.724730 0.013140
v 0.741271 0.341175 0.211930
v 0.324734 0.065065 0.262208
v -0.035864 -0.157939 -0.835149
v -0.752195 0.187158 0.521703
v -0.759184 0.082038 -0.497332
v -0.413770 -0.034764 0.266097
v -0.214239 0.154115 0.907882
v 1.011436 0.525501 0.397335
v 0.891500 0.721475 -0.433077
v 0.418305 1.077994 -0.760621
v -0.522760 0.112251 0.750200
v -0.169732 0.377355 1.028319
v 0.658369 0.803547 0.861628
v 0.556072 0.254084 0.761024
vn 0.3198 0.8493 0.4200
vn 0.3331 0.3620 0.8706
vn 0.2935 0.6252 0.7232
vn 0.5091 0.3269 0.7962
vn 0.5445 0.2926 0.7861
vn 0.5737 0.8176 -0.0480
vn 0.4544 0.8879 -0.0709
vn 0.4752 0.8621 -0.1757
vn 0.8855 0.4370 -0.1577
vn 0.9038 0.4189 -0.0878
vn 0.7767 0.5728 -0.2621
vn 0.2889 0.9465 -0.1438
vn 0.5758 0.8065 -0.1341
vn 0.9141 0.4012 -0.0589
vn 0.9470 0.3003 -0.1141
vn 0.4408 0.8719 -0.2133
vn 0.5284 0.8145 -0.2397
vn 0.6374 0.4688 -0.6116
vn 0.5464 0.5630 -0.6200
vn 0.5081 0.5975 -0.6204
vn -0.6822 0.7072 -0.1854
vn -0.4484 0.7030 -0.5520
vn -0.5345 0.7806 -0.3240
vn -0.6753 0.1043 -0.7301
vn -0.6676 0.0828 -0.7399
vn -0.7615 0.0843 -0.6427
vn -0.5555 0.5970 -0.5788
vn -0.4811 0.5921 -0.6465
vn -0.4376 0.6799 -0.5884
vn -0.8159 0.0043 -0.5781
vn -0.8990 0.3621 0.2464
vn -0.9008 0.3503 0.2565
vn -0.8843 0.3957 0.2477
vn -0.5183 0.8460 0.1252
vn -0.4902 0.7737 0.4014
vn -0.4318 0.8291 0.3551
vn -0.4303 0.5882 0.6847
vn -0.4091 0.7502 0.5195
vn -0.3454 0.5189 0.7820
vn -0.3503 0.4410 0.8264
vn -0.9771 0.2081 0.0440
vn -0.9203 0.2912 0.2615
vn -0.9572 0.0746 0.2797
vn 0.1985 0.7551 0.6248
vn 0.2822 0.5168 0.8083
vn 0.8374 0.2965 0.4592
vn 0.1989 0.7886 0.5819
vn 0.1768 0.7902 0.5869
vn 0.4467 -0.8504 0.2780
vn 0.2708 -0.8464 0.4586
vn 0.4286 -0.8707 0.2411
vn 0.0831 -0.9887 0.1245
vn 0.3800 -0.9245 -0.0304
vn 0.3149 -0.9200 0.2331
vn 0.4253 -0.8997 -0.0987
vn 0.6965 -0.7052 -0.1323
vn 0.6655 -0.7058 -0.2427
vn 0.5981 -0.7999 0.0494
vn 0.1399 -0.9370 0.3201
vn 0.3062 -0.8666 0.3939
vn 0.0777 -0.7530 0.6534
vn -0.1322 -0.9912 -0.0059
vn 0.1446 -0.8128 -0.5644
vn -0.3001 -0.9417 0.1523
vn -0.3807 -0.9163 -0.1246
vn -0.1162 -0.9725 0.2020
vn 0.0956 -0.9568 0.2747
vn -0.3551 -0.8721 0.3366
vn 0.1394 -0.9596 0.2442
vn 0.3860 -0.9084 0.1607
vn -0.6635 -0.5761 0.4774
vn -0.4801 -0.8145 0.3259
vn -0.6347 0.1157 -0.7640
vn -0.0828 0.2305 -0.9695
vn 0.0158 0.1479 -0.9889
vn 0.0632 -0.0050 -0.9980
vn 0.0289 0.1656 -0.9858
vn -0.0242 0.3272 -0.9446
vn 0.1732 0.3143 -0.9334
vn -0.6708 0.0652 -0.7387
vn -0.7719 0.1273 -0.6229
vn 0.1029 0.2083 -0.9726
vn 0.2441 0.2966 -0.9233
vn -0.9710 0.0964 0.2186
vn 0.2243 -0.4970 0.8383
vn -0.2696 0.4932 0.8271
vn -0.2859 -0.4858 0.8260
vn -0.3113 -0.4586 0.8323
vn -0.2500 -0.5224 0.8153
vn 0.9183 0.3895 -0.0703
vn 0.7205 0.6631 -0.2029
vn 0.4089 0.6747 -0.6144
vn -0.4874 0.6830 -0.5439
vn -0.3356 0.7188 -0.6088
vn -0.3952 0.6222 -0.6758
vn -0.8709 0.0560 -0.4883
vn 0.1922 0.7714 0.6066
vn 0.6913 -0.2527 0.6770
vn 0.8362 -0.5423 -0.0818
vn 0.3026 -0.9529 0.0201
vn -0.4100 -0.8755 -0.2558
vn 0.8871 0.4474 -0.1137
vn 0.9304 0.3545 -0.0932
vn 0.9843 0.1644 -0.0639
vn 0.9856 0.1362 0.1002
vn -0.1627 0.1515 -0.9750
vn -0.9717 -0.2200 0.0863
vn -0.9541 -0.2705 -0.1290
vn -0.3797 -0.3795 0.8437
vn 0.2058 0.0104 0.9785
vn 0.1618 -0.0232 0.9866
vn -0.0411 -0.1725 0.9841
vn 0.3624 0.1341 0.9223
vn -0.1500 0.5773 0.8026
vn -0.4257 -0.8514 -0.3066
s 1
usemtl rock_gray
f 15//1 38//1 3//1
f 3//2 6//3 15//4
f 6//3 14//5 15//4
f 38//6 15//7 4//8
f 35//9 47//10 32//11
f 15//7 14//12 4//8
f 4//8 18//13 38//6
f 17//14 35//9 14//15
f 4//8 35//16 36//17
f 36//18 35//19 48//20
f 18//21 19//22 38//23
f 33//24 12//25 21//26
f 33//27 37//28 20//29
f 37//30 33//24 21//26
f 22//31 20//32 37//33
f 20//34 22//35 38//36
f 22//35 24//37 3//38
f 23//39 11//40 24//37
f 23//39 24//37 22//35
f 1//41 23//42 42//43
f 11//44 6//3 24//45
f 16//46 51//46 46//46
f 16//47 6//3 51//48
f 6//3 11//44 51//48
f 39//49 30//50 46//51
f 29//52 26//53 40//54
f 26//53 13//55 25//56
f 30//57 26//53 25//56
f 25//56 13//55 9//58
f 27//59 41//60 13//61
f 8//62 41//60 27//59
f 26//53 27//59 13//55
f 41//63 10//63 9//63
f 29//52 8//62 27//59
f 8//62 28//64 43//65
f 28//64 8//62 44//66
f 44//66 45//67 49//68
f 7//69 40//54 52//70
f 7//69 45//67 44//66
f 49//68 1//71 42//72
f 29//52 40//54 7//69
f 52//70 39//49 46//51
f 45//67 7//69 52//70
f 12//25 33//24 2//73
f 10//74 31//75 9//76
f 5//77 31//75 32//78
f 31//75 48//79 32//78
f 12//25 10//80 43//81
f 48//79 2//82 36//83
f 34//84 42//43 23//42
f 45//85 52//85 50//85
f 23//39 50//86 11//40
f 49//87 50//88 1//89
f 17//14 14//15 16//90
f 14//12 35//16 4//8
f 17//14 47//10 35//9
f 4//8 36//17 18//13
f 5//91 32//11 47//10
f 32//92 48//20 35//19
f 19//22 2//93 33//27
f 38//23 19//22 20//29
f 36//94 2//93 19//22
f 36//94 19//22 18//95
f 33//27 20//29 19//22
f 34//96 37//30 21//26
f 22//35 3//38 38//36
f 37//33 23//42 22//31
f 14//97 6//3 16//47
f 24//45 6//3 3//2
f 46//98 51//98 52//98
f 30//50 39//49 26//53
f 39//49 40//54 26//53
f 5//99 25//56 9//58
f 29//52 27//59 26//53
f 9//58 13//55 41//100
f 42//72 28//64 44//66
f 43//65 41//101 8//62
f 29//52 44//66 8//62
f 49//68 42//72 44//66
f 7//69 44//66 29//52
f 52//70 40//54 39//49
f 46//102 30//103 17//14
f 47//10 30//103 25//104
f 17//14 30//103 47//10
f 16//90 46//102 17//14
f 47//10 25//104 5//105
f 2//82 31//75 12//106
f 48//79 31//75 2//82
f 9//76 31//75 5//77
f 43//81 21//26 12//25
f 12//106 31//75 10//74
f 28//107 34//84 43//108
f 43//81 34//96 21//26
f 42//43 34//84 28//107
f 37//33 34//84 23//42
f 45//109 50//88 49//87
f 11//110 52//111 51//112
f 11//110 50//113 52//111
f 1//114 50//86 23//39
f 41//101 43//65 10//115
