# Blender 4.2.3 LTS
# www.blender.org
mtllib shield.mtl
o Shield
v 4.588219 6.044081 2.429323
v 4.588219 6.324080 2.429323
v 4.588219 6.044081 -2.545067
v 4.588219 6.324080 -2.545067
v 4.868218 6.044081 2.429323
v 4.868218 6.324080 2.429323
v 4.868218 6.044081 -2.545067
v 4.868218 6.324080 -2.545067
v 4.588219 6.044081 -2.256718
v 4.588219 6.324080 -2.256718
v 4.868218 6.044081 -2.256718
v 4.868218 6.324080 -2.256718
v 4.588219 6.044081 2.177381
v 4.868218 6.324080 2.177381
v 4.588219 6.324080 2.177381
v 4.868218 6.044081 2.177381
v 8.768887 6.324080 -2.545067
v 8.768887 6.044081 -2.545067
v 8.768887 6.044081 -2.256718
v 8.768887 6.324080 2.177381
v 8.768887 6.324080 2.429323
v 8.768887 6.044081 2.429323
v 8.768887 6.324080 -2.256718
v 8.768887 6.044081 2.177381
v 8.646848 3.315952 13.345082
v 8.646848 10.145702 13.345082
v 8.646848 3.315952 -13.281441
v 8.646848 10.145702 -13.281441
v 8.846848 3.315952 13.345082
v 8.846848 10.145702 13.345082
v 8.846848 3.315952 -13.281441
v 8.846848 10.145702 -13.281441
vn -1.0000 -0.0000 -0.0000
vn -0.0000 -0.0000 -1.0000
vn -0.0000 -0.0000 1.0000
vn -0.0000 -1.0000 -0.0000
vn -0.0000 1.0000 -0.0000
vn 1.0000 -0.0000 -0.0000
vt 0.375000 0.235508
vt 0.625000 0.235508
vt 0.625000 0.250000
vt 0.375000 0.250000
vt 0.625000 0.500000
vt 0.375000 0.500000
vt 0.625000 0.514492
vt 0.375000 0.514492
vt 0.375000 0.750000
vt 0.625000 0.750000
vt 0.625000 1.000000
vt 0.375000 1.000000
vt 0.125000 0.737338
vt 0.375000 0.737338
vt 0.125000 0.750000
vt 0.625000 0.737338
vt 0.875000 0.737338
vt 0.875000 0.750000
vt 0.875000 0.500000
vt 0.875000 0.514492
vt 0.125000 0.500000
vt 0.125000 0.514492
vt 0.375000 0.012662
vt 0.625000 0.012662
vt 0.375000 0.000000
vt 0.625000 0.000000
s 0
f 9/1/1 10/2/1 4/3/1 3/4/1
f 3/4/2 4/3/2 8/5/2 7/6/2
f 12/7/3 11/8/3 19/8/3 23/7/3
f 5/9/3 6/10/3 2/11/3 1/12/3
f 13/13/4 16/14/4 5/9/4 1/15/4
f 14/16/5 15/17/5 2/18/5 6/10/5
f 8/5/5 4/19/5 10/20/5 12/7/5
f 3/21/4 7/6/4 11/8/4 9/22/4
f 6/10/3 5/9/3 22/9/3 21/10/3
f 13/23/1 15/24/1 10/2/1 9/1/1
f 1/25/1 2/26/1 15/24/1 13/23/1
f 12/7/5 10/20/5 15/17/5 14/16/5
f 9/22/4 11/8/4 16/14/4 13/13/4
f 11/8/6 12/7/6 14/16/6 16/14/6
f 24/14/6 20/16/6 21/10/6 22/9/6
f 18/6/6 17/5/6 23/7/6 19/8/6
f 11/8/4 7/6/4 18/6/4 19/8/4
f 16/14/2 14/16/2 20/16/2 24/14/2
f 5/9/4 16/14/4 24/14/4 22/9/4
f 14/16/5 6/10/5 21/10/5 20/16/5
f 7/6/2 8/5/2 17/5/2 18/6/2
f 8/5/5 12/7/5 23/7/5 17/5/5
f 25/25/1 26/26/1 28/3/1 27/4/1
f 27/4/2 28/3/2 32/5/2 31/6/2
f 31/6/6 32/5/6 30/10/6 29/9/6
f 29/9/3 30/10/3 26/11/3 25/12/3
f 27/21/4 31/6/4 29/9/4 25/15/4
f 32/5/5 28/19/5 26/18/5 30/10/5
