# Blender 4.2.3 LTS
# www.blender.org
mtllib rock4.mtl
o low_poly_rock_4
v 1.061184 1.113678 -0.053154
v 0.918722 -0.002538 0.737585
v -0.798467 1.091235 -0.400104
v -0.253288 1.045274 0.607156
v 0.000868 0.048080 -0.282714
v -0.235669 1.224663 0.309233
v -0.906037 0.748552 0.055809
v 1.009596 0.871711 0.354971
v 0.828121 0.715251 -0.342283
v -0.552799 0.189711 -0.824467
v -0.889282 0.223105 -0.799260
v 0.095277 1.095039 -0.409908
v -0.458904 1.127420 -0.418902
v -0.696252 1.090783 -0.611831
v 0.459056 1.228258 0.053377
v 0.158957 1.268845 -0.136698
v -0.120268 1.208935 -0.342364
v 0.186120 1.223669 0.591757
v 0.578523 0.012162 0.206169
v -0.788039 0.065788 -0.293766
v -0.577218 1.091031 0.089775
v 0.764606 0.163255 -0.214703
v -0.569092 0.224388 0.702153
v -0.790185 0.642982 -0.912845
v 0.984148 0.343322 0.079044
v 1.095018 0.332314 0.469682
v 0.954650 0.323948 -0.450355
v 0.927000 0.373423 -0.211468
v -0.540758 1.178267 -0.174939
v 0.041421 0.746939 0.893103
v -0.236275 0.363824 0.887516
v 0.828793 0.384769 0.846565
v -0.333913 0.671070 -0.845280
v 0.421311 0.704979 -0.424804
v 0.725995 0.081220 -0.692835
v 0.382179 0.170908 -0.774527
v -0.171801 0.002081 0.617115
v 0.197125 0.064580 0.860753
v 0.269014 -0.071562 0.076994
v -0.589123 -0.026642 -0.196245
v -0.109223 -0.043456 -0.719366
v 0.437599 -0.038921 -0.407701
v -1.047482 0.494624 -0.464113
v -0.885065 0.835174 -0.243175
v -1.005614 0.715849 -0.762585
v -0.792218 0.300826 0.280812
v -0.650916 0.668184 0.565854
v 0.790893 0.497180 -0.623194
v 0.447876 0.522844 0.812175
v 0.088400 0.235907 -0.955278
v -0.717529 0.230503 0.180497
v -0.887466 0.586473 -0.122715
vn 0.9498 0.2013 0.2394
vn 0.6294 0.2557 0.7338
vn 0.8015 0.1679 0.5740
vn 0.8279 0.1504 0.5404
vn 0.8560 -0.4621 -0.2317
vn 0.3082 -0.9482 -0.0767
vn 0.6184 -0.7854 0.0262
vn 0.9542 0.2949 0.0494
vn 0.8929 0.2245 -0.3902
vn 0.9124 0.3525 -0.2080
vn 0.8936 -0.4199 -0.1589
vn 0.7851 -0.0099 -0.6193
vn 0.9167 -0.0928 -0.3888
vn 0.7262 -0.6760 0.1247
vn 0.5750 -0.8129 0.0930
vn -0.3853 0.9224 0.0283
vn -0.1412 0.9855 -0.0943
vn -0.1401 0.9676 -0.2099
vn 0.2611 0.6298 -0.7315
vn 0.1723 0.9796 -0.1031
vn 0.3331 0.9241 0.1872
vn 0.3941 0.7311 -0.5569
vn -0.1123 0.9847 -0.1329
vn 0.2755 0.8309 0.4835
vn -0.0593 0.9982 0.0078
vn -0.3317 0.9088 0.2531
vn -0.6387 0.6351 0.4343
vn -0.4566 0.6209 0.6372
vn -0.6165 0.7287 0.2983
vn 0.4071 0.6465 0.6452
vn -0.3813 0.4150 0.8260
vn -0.2563 0.6897 0.6773
vn -0.4727 0.2710 0.8385
vn -0.2801 -0.5954 0.7531
vn -0.2809 -0.6180 0.7342
vn -0.2717 -0.4687 0.8405
vn 0.0855 -0.0344 0.9957
vn 0.1419 -0.2374 0.9610
vn 0.0732 -0.1005 0.9922
vn 0.9022 0.0908 0.4217
vn 0.2050 0.2927 0.9339
vn 0.0747 0.7549 -0.6516
vn 0.2844 0.6226 -0.7290
vn 0.2229 0.4921 -0.8415
vn 0.2795 0.3826 -0.8806
vn 0.3043 0.4364 -0.8467
vn 0.4246 -0.1154 -0.8980
vn 0.4796 -0.2050 -0.8532
vn 0.3331 0.0200 -0.9427
vn -0.0350 -0.0273 -0.9990
vn -0.0600 -0.0986 -0.9933
vn 0.0578 -0.1618 -0.9851
vn 0.2556 0.5826 -0.7715
vn 0.1773 0.6500 -0.7389
vn 0.1974 0.6845 -0.7017
vn 0.1130 0.6563 -0.7460
vn -0.2810 -0.7372 0.6145
vn -0.4784 -0.8691 0.1259
vn -0.6405 -0.7578 0.1247
vn -0.5112 -0.8354 0.2020
vn 0.1090 -0.9939 0.0152
vn -0.0226 -0.9954 -0.0927
vn -0.0199 -0.9985 -0.0509
vn 0.4754 -0.8730 0.1091
vn 0.1479 -0.9748 0.1670
vn 0.0247 -0.9797 0.1991
vn -0.1880 -0.9818 0.0266
vn -0.3107 -0.8930 -0.3255
vn -0.2592 -0.9163 -0.3054
vn -0.3800 -0.8676 -0.3208
vn 0.0714 -0.7012 -0.7094
vn -0.1205 -0.5893 -0.7988
vn 0.1345 -0.7296 -0.6705
vn -0.9012 -0.3689 0.2277
vn -0.9398 -0.2544 0.2281
vn -0.8870 -0.2879 0.3609
vn -0.6484 0.5450 0.5315
vn -0.7052 0.6525 0.2773
vn -0.9589 0.2465 0.1403
vn -0.9205 0.3711 0.1224
vn -0.9251 0.3165 0.2097
vn -0.1143 0.5706 -0.8132
vn -0.3293 0.5734 -0.7502
vn -0.9313 -0.3573 0.0714
vn -0.9386 -0.2007 -0.2804
vn -0.9126 -0.3931 -0.1124
vn -0.7028 0.6522 0.2841
vn -0.9856 -0.0943 0.1404
vn -0.9919 -0.0510 0.1159
vn -0.8690 -0.4533 0.1985
vn 0.8500 -0.4613 -0.2543
vn 0.6263 -0.7141 -0.3128
vn 0.8075 0.2154 -0.5492
vn 0.7267 0.0016 -0.6869
vn -0.1088 0.9926 -0.0546
vn 0.2592 0.1970 0.9455
vn 0.0344 -0.0395 0.9986
vn -0.4534 0.2774 0.8470
vn 0.1761 0.6662 0.7247
vn 0.1058 0.7786 -0.6185
vn 0.2590 0.1200 -0.9584
vn -0.2031 0.0501 -0.9779
vn -0.0961 -0.2387 -0.9663
vn 0.0206 -0.9956 0.0917
vn 0.0244 -0.9920 0.1241
vn -0.5465 -0.7667 0.3370
vn -0.0877 -0.9957 0.0286
vn 0.1501 -0.8230 -0.5478
vn 0.0955 -0.8381 -0.5370
vn -0.5298 -0.7737 0.3475
vn -0.2234 -0.9226 -0.3145
vn -0.1153 -0.9548 -0.2741
vn -0.1127 -0.8697 -0.4805
vn -0.9186 0.3680 0.1439
vn -0.6629 0.6762 -0.3215
vn -0.5881 -0.0789 -0.8049
vn -0.8897 -0.0118 0.4563
vn -0.8851 -0.0204 0.4650
vn -0.5302 0.1581 0.8330
s 1
usemtl rock_gray
f 8//1 26//1 1//1
f 26//2 8//3 2//4
f 25//5 19//6 22//7
f 28//8 27//9 9//10
f 28//11 9//12 1//13
f 22//7 27//14 28//11
f 22//7 35//15 27//14
f 29//16 17//17 13//18
f 12//19 15//20 1//21
f 12//19 16//22 15//20
f 29//16 13//18 3//23
f 15//20 18//24 1//21
f 16//25 18//24 15//20
f 16//25 6//26 18//24
f 6//26 16//25 17//17
f 47//27 4//28 6//26
f 47//27 6//26 21//29
f 18//24 8//30 1//21
f 4//28 30//31 18//32
f 4//28 31//33 30//31
f 23//34 38//35 31//36
f 38//37 2//38 32//39
f 32//40 2//4 8//3
f 18//24 49//41 8//30
f 48//42 50//43 34//44
f 9//45 12//19 1//46
f 34//44 12//19 9//45
f 36//47 50//48 48//49
f 33//50 10//51 24//52
f 33//53 14//54 13//55
f 12//19 13//55 17//56
f 23//34 37//57 38//35
f 23//58 51//59 37//60
f 39//61 40//62 5//63
f 22//7 39//61 42//64
f 40//65 41//66 5//63
f 39//61 5//63 42//67
f 40//68 10//69 41//70
f 41//71 10//72 50//73
f 22//7 42//64 35//15
f 20//74 51//75 52//76
f 29//16 3//77 44//78
f 44//79 3//80 43//81
f 24//82 45//83 14//54
f 43//84 45//85 11//86
f 29//16 7//87 21//29
f 7//88 44//79 52//89
f 51//59 46//90 52//89
f 21//29 7//87 47//27
f 26//91 25//5 1//13
f 1//13 25//5 28//11
f 2//92 25//5 26//91
f 19//6 25//5 2//92
f 28//11 25//5 22//7
f 48//93 27//9 35//94
f 27//9 48//93 9//10
f 12//19 17//56 16//22
f 3//23 13//18 14//95
f 4//28 18//32 6//26
f 21//29 6//26 29//16
f 29//16 6//26 17//17
f 49//41 30//96 38//37
f 30//96 31//97 38//37
f 18//24 30//96 49//41
f 47//98 31//33 4//28
f 49//41 38//37 32//39
f 8//30 49//41 32//99
f 34//44 33//53 12//19
f 50//43 33//53 34//44
f 9//100 48//42 34//44
f 35//101 36//47 48//49
f 50//102 10//51 33//50
f 24//52 10//51 11//103
f 33//53 24//82 14//54
f 12//19 33//53 13//55
f 38//104 37//105 19//6
f 37//105 39//61 19//6
f 37//60 51//59 40//106
f 39//61 37//105 40//62
f 38//104 19//6 2//107
f 50//73 36//108 42//109 41//71
f 19//6 39//61 22//7
f 42//67 5//63 41//66
f 51//59 20//110 40//106
f 40//68 20//111 10//69
f 10//69 20//111 11//112
f 35//113 42//109 36//108
f 43//81 52//89 44//79
f 20//74 43//84 11//86
f 43//84 20//74 52//76
f 45//114 43//81 3//80
f 45//115 3//115 14//115
f 11//116 45//116 24//116
f 7//88 46//90 47//117
f 47//117 46//90 23//118
f 29//16 44//78 7//87
f 52//89 46//90 7//88
f 46//90 51//59 23//58
f 47//98 23//119 31//33
